M48
;Layer_Color=9474304
;FILE_FORMAT=2:4
INCH,TZ
;TYPE=PLATED
T1F00S00C0.0157
T2F00S00C0.0236
T3F00S00C0.0315
T4F00S00C0.0394
T5F00S00C0.0630
T6F00S00C0.0709
;TYPE=NON_PLATED
T7F00S00C0.0591
T8F00S00C0.1181
%
T01
X5197Y4646
X7756Y4843
X8530Y2730
X9843Y3622
X3465Y7205
Y7874
X2087Y7323
X2402Y10906
T02
X2756Y394
X3189Y2283
X3346Y4724
X4921Y5394
X1378Y4134
X7874Y6102
X7756Y8346
X7323Y8819
X6732
X6142
X5709Y8346
X5787Y10433
X6260
X6732
X7205
X7677
X5315
X4843
X5079Y9921
Y9370
Y8819
X5197Y7480
X5512Y6299
X4055Y6378
X2402Y6260
X1535Y6181
X787Y6299
X1260Y7913
X3189Y10551
T03
X614Y1445
Y2445
Y3445
X1614Y2945
Y1945
Y945
X9567Y8307
X3307Y5787
T04
X4528Y906
X4567Y1575
X5709
Y906
X6890
Y1575
Y11535
Y12165
X5709
Y11535
X4528
Y12165
X3346
Y11535
T05
X12008Y4323
Y6512
Y8701
T06
X13740Y4685
X15709Y4685
Y7795
X13740
X984Y9449
Y11417
T07
X906Y394
T08
X15354Y1181
Y11417
M30
