G04 Layer_Color=16711935*
%FSLAX24Y24*%
%MOIN*%
G70*
G01*
G75*
%ADD28C,0.0591*%
G04:AMPARAMS|DCode=51|XSize=47.2mil|YSize=43.3mil|CornerRadius=8.4mil|HoleSize=0mil|Usage=FLASHONLY|Rotation=180.000|XOffset=0mil|YOffset=0mil|HoleType=Round|Shape=RoundedRectangle|*
%AMROUNDEDRECTD51*
21,1,0.0472,0.0266,0,0,180.0*
21,1,0.0305,0.0433,0,0,180.0*
1,1,0.0167,-0.0153,0.0133*
1,1,0.0167,0.0153,0.0133*
1,1,0.0167,0.0153,-0.0133*
1,1,0.0167,-0.0153,-0.0133*
%
%ADD51ROUNDEDRECTD51*%
%ADD55C,0.1457*%
%ADD56C,0.0079*%
%ADD57C,0.1260*%
%ADD58C,0.1260*%
%ADD59R,0.0339X0.0472*%
G04:AMPARAMS|DCode=60|XSize=47.2mil|YSize=33.9mil|CornerRadius=10.4mil|HoleSize=0mil|Usage=FLASHONLY|Rotation=90.000|XOffset=0mil|YOffset=0mil|HoleType=Round|Shape=RoundedRectangle|*
%AMROUNDEDRECTD60*
21,1,0.0472,0.0130,0,0,90.0*
21,1,0.0264,0.0339,0,0,90.0*
1,1,0.0209,0.0065,0.0132*
1,1,0.0209,0.0065,-0.0132*
1,1,0.0209,-0.0065,-0.0132*
1,1,0.0209,-0.0065,0.0132*
%
%ADD60ROUNDEDRECTD60*%
%ADD61O,0.0335X0.0807*%
%ADD62O,0.0315X0.0669*%
%ADD63R,0.0315X0.0669*%
%ADD64O,0.0433X0.0197*%
%ADD65R,0.0433X0.0197*%
G04:AMPARAMS|DCode=66|XSize=47.2mil|YSize=43.3mil|CornerRadius=8.4mil|HoleSize=0mil|Usage=FLASHONLY|Rotation=270.000|XOffset=0mil|YOffset=0mil|HoleType=Round|Shape=RoundedRectangle|*
%AMROUNDEDRECTD66*
21,1,0.0472,0.0266,0,0,270.0*
21,1,0.0305,0.0433,0,0,270.0*
1,1,0.0167,-0.0133,-0.0153*
1,1,0.0167,-0.0133,0.0153*
1,1,0.0167,0.0133,0.0153*
1,1,0.0167,0.0133,-0.0153*
%
%ADD66ROUNDEDRECTD66*%
%ADD67R,0.0729X0.0319*%
%ADD68R,0.1899X0.1859*%
G04:AMPARAMS|DCode=69|XSize=98.4mil|YSize=78.7mil|CornerRadius=12.8mil|HoleSize=0mil|Usage=FLASHONLY|Rotation=270.000|XOffset=0mil|YOffset=0mil|HoleType=Round|Shape=RoundedRectangle|*
%AMROUNDEDRECTD69*
21,1,0.0984,0.0532,0,0,270.0*
21,1,0.0728,0.0787,0,0,270.0*
1,1,0.0256,-0.0266,-0.0364*
1,1,0.0256,-0.0266,0.0364*
1,1,0.0256,0.0266,0.0364*
1,1,0.0256,0.0266,-0.0364*
%
%ADD69ROUNDEDRECTD69*%
G04:AMPARAMS|DCode=70|XSize=78.7mil|YSize=53.2mil|CornerRadius=9.6mil|HoleSize=0mil|Usage=FLASHONLY|Rotation=180.000|XOffset=0mil|YOffset=0mil|HoleType=Round|Shape=RoundedRectangle|*
%AMROUNDEDRECTD70*
21,1,0.0787,0.0340,0,0,180.0*
21,1,0.0595,0.0532,0,0,180.0*
1,1,0.0192,-0.0298,0.0170*
1,1,0.0192,0.0298,0.0170*
1,1,0.0192,0.0298,-0.0170*
1,1,0.0192,-0.0298,-0.0170*
%
%ADD70ROUNDEDRECTD70*%
G04:AMPARAMS|DCode=71|XSize=78.7mil|YSize=53.2mil|CornerRadius=9.6mil|HoleSize=0mil|Usage=FLASHONLY|Rotation=270.000|XOffset=0mil|YOffset=0mil|HoleType=Round|Shape=RoundedRectangle|*
%AMROUNDEDRECTD71*
21,1,0.0787,0.0340,0,0,270.0*
21,1,0.0595,0.0532,0,0,270.0*
1,1,0.0192,-0.0170,-0.0298*
1,1,0.0192,-0.0170,0.0298*
1,1,0.0192,0.0170,0.0298*
1,1,0.0192,0.0170,-0.0298*
%
%ADD71ROUNDEDRECTD71*%
%ADD72R,0.0319X0.0729*%
%ADD73R,0.1859X0.1899*%
G04:AMPARAMS|DCode=74|XSize=114.2mil|YSize=63mil|CornerRadius=10.8mil|HoleSize=0mil|Usage=FLASHONLY|Rotation=0.000|XOffset=0mil|YOffset=0mil|HoleType=Round|Shape=RoundedRectangle|*
%AMROUNDEDRECTD74*
21,1,0.1142,0.0413,0,0,0.0*
21,1,0.0925,0.0630,0,0,0.0*
1,1,0.0217,0.0463,-0.0207*
1,1,0.0217,-0.0463,-0.0207*
1,1,0.0217,-0.0463,0.0207*
1,1,0.0217,0.0463,0.0207*
%
%ADD74ROUNDEDRECTD74*%
G04:AMPARAMS|DCode=75|XSize=39.4mil|YSize=47.2mil|CornerRadius=7.9mil|HoleSize=0mil|Usage=FLASHONLY|Rotation=270.000|XOffset=0mil|YOffset=0mil|HoleType=Round|Shape=RoundedRectangle|*
%AMROUNDEDRECTD75*
21,1,0.0394,0.0315,0,0,270.0*
21,1,0.0236,0.0472,0,0,270.0*
1,1,0.0157,-0.0157,-0.0118*
1,1,0.0157,-0.0157,0.0118*
1,1,0.0157,0.0157,0.0118*
1,1,0.0157,0.0157,-0.0118*
%
%ADD75ROUNDEDRECTD75*%
D28*
X614Y3445D02*
D03*
Y1445D02*
D03*
Y2445D02*
D03*
X1614Y1945D02*
D03*
Y2945D02*
D03*
Y945D02*
D03*
D51*
X2520Y1358D02*
D03*
Y2028D02*
D03*
Y3248D02*
D03*
Y2579D02*
D03*
X1535Y6791D02*
D03*
Y7461D02*
D03*
X9724Y3327D02*
D03*
Y2657D02*
D03*
D55*
X12008Y8701D02*
D03*
Y6512D02*
D03*
Y4323D02*
D03*
D56*
X906Y394D02*
D03*
D57*
X15709Y4685D02*
D03*
X13740Y4685D02*
D03*
X15709Y7795D02*
D03*
X13740D02*
D03*
X984Y11417D02*
D03*
Y9449D02*
D03*
D58*
X15354Y11417D02*
D03*
Y1181D02*
D03*
D59*
X2953Y6772D02*
D03*
D60*
X2579D02*
D03*
X2205D02*
D03*
X2953Y7807D02*
D03*
X2205D02*
D03*
D61*
X9030Y2077D02*
D03*
X8530D02*
D03*
X9030Y4616D02*
D03*
X8530D02*
D03*
D62*
X8776Y7717D02*
D03*
X9276D02*
D03*
X9776D02*
D03*
X10276D02*
D03*
X8776Y5551D02*
D03*
X9276D02*
D03*
X9776D02*
D03*
D63*
X10276D02*
D03*
D64*
X4150Y4685D02*
D03*
Y4488D02*
D03*
Y4291D02*
D03*
Y4094D02*
D03*
Y3898D02*
D03*
X2441Y4685D02*
D03*
Y4488D02*
D03*
Y4291D02*
D03*
Y4094D02*
D03*
D65*
Y3898D02*
D03*
D66*
X3917Y7874D02*
D03*
X4587D02*
D03*
X5531Y4134D02*
D03*
X4862D02*
D03*
X5531Y3543D02*
D03*
X4862D02*
D03*
X3484Y2717D02*
D03*
X4154D02*
D03*
X3484Y3307D02*
D03*
X4154D02*
D03*
X10374Y4724D02*
D03*
X9705D02*
D03*
X10374Y3976D02*
D03*
X9705D02*
D03*
X9075Y1220D02*
D03*
X8406D02*
D03*
D67*
X4469Y8423D02*
D03*
Y8923D02*
D03*
Y9923D02*
D03*
Y9423D02*
D03*
D68*
X2965Y9173D02*
D03*
D69*
X4114Y5551D02*
D03*
X2972D02*
D03*
X1791Y5197D02*
D03*
X650D02*
D03*
D70*
X630Y8031D02*
D03*
Y6850D02*
D03*
X7638Y11929D02*
D03*
Y10748D02*
D03*
X6732Y11929D02*
D03*
Y10748D02*
D03*
X5827Y11929D02*
D03*
Y10748D02*
D03*
X4921Y11929D02*
D03*
Y10748D02*
D03*
X4016Y11929D02*
D03*
Y10748D02*
D03*
X3110Y11929D02*
D03*
Y10748D02*
D03*
X2205Y11929D02*
D03*
Y10748D02*
D03*
D71*
X4724Y7008D02*
D03*
X3543D02*
D03*
D72*
X7718Y5138D02*
D03*
X7218D02*
D03*
X6719D02*
D03*
X6219D02*
D03*
D73*
X6969Y3634D02*
D03*
D74*
X6732Y8110D02*
D03*
Y6299D02*
D03*
D75*
X10256Y9213D02*
D03*
X8799D02*
D03*
M02*
