G04 Layer_Color=32896*
%FSLAX24Y24*%
%MOIN*%
G70*
G01*
G75*
%ADD46C,0.0236*%
%ADD47C,0.0079*%
%ADD48C,0.0050*%
%ADD76C,0.0098*%
D46*
X9075Y2992D02*
G03*
X9075Y2992I-118J0D01*
G01*
D47*
X3140Y7383D02*
G03*
X3140Y7196I0J-93D01*
G01*
X10526Y6759D02*
G03*
X10526Y6509I0J-125D01*
G01*
X3344Y3799D02*
G03*
X3246Y3799I-49J0D01*
G01*
X3140Y7196D02*
Y7297D01*
Y7282D02*
Y7383D01*
X8209Y2598D02*
X9350D01*
X8209Y4094D02*
X9350D01*
Y2598D02*
Y4094D01*
X8209Y2598D02*
Y4094D01*
X8526Y6175D02*
X10526D01*
X8526D02*
Y7093D01*
X10526D01*
Y6759D02*
Y7093D01*
Y6175D02*
Y6509D01*
X2947Y3799D02*
Y4783D01*
X3644D01*
Y3799D02*
Y4783D01*
X3344Y3799D02*
X3644D01*
X2947D02*
X3246D01*
X7224Y6732D02*
Y7677D01*
X6240Y6732D02*
Y7677D01*
D48*
X4192Y7714D02*
X4312D01*
X4192Y8034D02*
X4312D01*
X2680Y1633D02*
Y1753D01*
X2360Y1633D02*
Y1753D01*
Y2853D02*
Y2973D01*
X2680Y2853D02*
Y2973D01*
X2953Y6142D02*
X3976D01*
X2992D02*
Y6260D01*
X2953Y6142D02*
Y6260D01*
X3031Y6142D02*
Y6260D01*
X2953D02*
X3031D01*
Y4843D02*
Y4961D01*
X2953Y4843D02*
X3031D01*
X2953D02*
Y4961D01*
X2992Y4843D02*
Y4961D01*
X2953D02*
X3976D01*
X1811Y5787D02*
Y5906D01*
X1772Y5787D02*
Y5906D01*
X1732D02*
X1811D01*
X1732Y5787D02*
Y5906D01*
X787Y5787D02*
X1811D01*
Y4488D02*
Y4606D01*
X1732Y4488D02*
X1811D01*
X1732D02*
Y4606D01*
X1772Y4488D02*
Y4606D01*
X787D02*
X1811D01*
X285Y7598D02*
X975D01*
X285Y7283D02*
X975D01*
X4291Y6663D02*
Y7353D01*
X3976Y6663D02*
Y7353D01*
X1348Y7056D02*
X1723D01*
X1348Y7196D02*
X1723D01*
X5137Y3974D02*
X5257D01*
X5137Y4294D02*
X5257D01*
X5137Y3383D02*
X5257D01*
X5137Y3703D02*
X5257D01*
X3749Y2529D02*
Y2904D01*
X3889Y2529D02*
Y2904D01*
X3759Y3467D02*
X3879D01*
X3759Y3147D02*
X3879D01*
X9979Y4884D02*
X10099D01*
X9979Y4564D02*
X10099D01*
X9969Y3789D02*
Y4164D01*
X10109Y3789D02*
Y4164D01*
X10098Y8819D02*
X10217Y8878D01*
X10098D02*
X10217D01*
Y8819D02*
Y8937D01*
X10098Y8819D02*
Y8937D01*
X10217Y8878D01*
X8958D02*
X10098D01*
X9843D02*
Y9547D01*
X9803Y8878D02*
Y9547D01*
X9882Y8878D02*
Y9547D01*
X8957D02*
X10098D01*
X8680Y1380D02*
X8800D01*
X8680Y1060D02*
X8800D01*
X7293Y11496D02*
X7983D01*
X7293Y11181D02*
X7983D01*
X6387Y11496D02*
X7077D01*
X6387Y11181D02*
X7077D01*
X5482Y11496D02*
X6172D01*
X5482Y11181D02*
X6172D01*
X4576Y11496D02*
X5266D01*
X4576Y11181D02*
X5266D01*
X3671Y11496D02*
X4361D01*
X3671Y11181D02*
X4361D01*
X2765Y11181D02*
X3455D01*
X2765Y11496D02*
X3455D01*
X1860Y11181D02*
X2550D01*
X1860Y11496D02*
X2550D01*
X9884Y2932D02*
Y3052D01*
X9564Y2932D02*
Y3052D01*
D76*
X9423Y2077D02*
G03*
X9423Y2077I-49J0D01*
G01*
M02*
