G04 Layer_Color=8388736*
%FSLAX24Y24*%
%MOIN*%
G70*
G01*
G75*
%ADD26C,0.0394*%
%ADD28C,0.0591*%
G04:AMPARAMS|DCode=50|XSize=47.2mil|YSize=43.3mil|CornerRadius=8.4mil|HoleSize=0mil|Usage=FLASHONLY|Rotation=180.000|XOffset=0mil|YOffset=0mil|HoleType=Round|Shape=RoundedRectangle|*
%AMROUNDEDRECTD50*
21,1,0.0472,0.0266,0,0,180.0*
21,1,0.0305,0.0433,0,0,180.0*
1,1,0.0167,-0.0153,0.0133*
1,1,0.0167,0.0153,0.0133*
1,1,0.0167,0.0153,-0.0133*
1,1,0.0167,-0.0153,-0.0133*
%
%ADD50ROUNDEDRECTD50*%
G04:AMPARAMS|DCode=51|XSize=39.4mil|YSize=39.4mil|CornerRadius=7.9mil|HoleSize=0mil|Usage=FLASHONLY|Rotation=90.000|XOffset=0mil|YOffset=0mil|HoleType=Round|Shape=RoundedRectangle|*
%AMROUNDEDRECTD51*
21,1,0.0394,0.0236,0,0,90.0*
21,1,0.0236,0.0394,0,0,90.0*
1,1,0.0157,0.0118,0.0118*
1,1,0.0157,0.0118,-0.0118*
1,1,0.0157,-0.0118,-0.0118*
1,1,0.0157,-0.0118,0.0118*
%
%ADD51ROUNDEDRECTD51*%
G04:AMPARAMS|DCode=52|XSize=106.3mil|YSize=94.5mil|CornerRadius=14.8mil|HoleSize=0mil|Usage=FLASHONLY|Rotation=0.000|XOffset=0mil|YOffset=0mil|HoleType=Round|Shape=RoundedRectangle|*
%AMROUNDEDRECTD52*
21,1,0.1063,0.0650,0,0,0.0*
21,1,0.0768,0.0945,0,0,0.0*
1,1,0.0295,0.0384,-0.0325*
1,1,0.0295,-0.0384,-0.0325*
1,1,0.0295,-0.0384,0.0325*
1,1,0.0295,0.0384,0.0325*
%
%ADD52ROUNDEDRECTD52*%
G04:AMPARAMS|DCode=53|XSize=106.3mil|YSize=137.8mil|CornerRadius=16.2mil|HoleSize=0mil|Usage=FLASHONLY|Rotation=90.000|XOffset=0mil|YOffset=0mil|HoleType=Round|Shape=RoundedRectangle|*
%AMROUNDEDRECTD53*
21,1,0.1063,0.1053,0,0,90.0*
21,1,0.0738,0.1378,0,0,90.0*
1,1,0.0325,0.0527,0.0369*
1,1,0.0325,0.0527,-0.0369*
1,1,0.0325,-0.0527,-0.0369*
1,1,0.0325,-0.0527,0.0369*
%
%ADD53ROUNDEDRECTD53*%
%ADD54O,0.0579X0.1378*%
%ADD55C,0.1457*%
%ADD56C,0.0079*%
%ADD57C,0.1260*%
%ADD58C,0.1260*%
%ADD59C,0.0472*%
%ADD60C,0.0630*%
%ADD61C,0.0669*%
D26*
X7756Y4843D02*
D03*
X3465Y7205D02*
D03*
X5197Y4646D02*
D03*
X2087Y7323D02*
D03*
X3465Y7874D02*
D03*
X9843Y3622D02*
D03*
X8530Y2730D02*
D03*
X2402Y10906D02*
D03*
D28*
X614Y3445D02*
D03*
Y1445D02*
D03*
Y2445D02*
D03*
X1614Y1945D02*
D03*
Y2945D02*
D03*
Y945D02*
D03*
D50*
X2402Y8484D02*
D03*
Y9154D02*
D03*
X2520Y2303D02*
D03*
Y2972D02*
D03*
D51*
X2402Y10492D02*
D03*
Y9823D02*
D03*
X2520Y1673D02*
D03*
Y1004D02*
D03*
D52*
X15709Y6299D02*
D03*
X13819D02*
D03*
X15709Y3189D02*
D03*
X13819D02*
D03*
X15709Y9409D02*
D03*
X13819D02*
D03*
D53*
X1575Y5000D02*
D03*
Y7677D02*
D03*
D54*
X9843Y11654D02*
D03*
X8661D02*
D03*
X7480D02*
D03*
X6299D02*
D03*
X5118D02*
D03*
X3937D02*
D03*
X9843Y1055D02*
D03*
X8661D02*
D03*
X7480D02*
D03*
X6299D02*
D03*
X5118D02*
D03*
X3937D02*
D03*
D55*
X12008Y8701D02*
D03*
Y6512D02*
D03*
Y4323D02*
D03*
D56*
X906Y394D02*
D03*
D57*
X15709Y4685D02*
D03*
X13740Y4685D02*
D03*
X15709Y7795D02*
D03*
X13740D02*
D03*
X984Y11417D02*
D03*
Y9449D02*
D03*
D58*
X15354Y11417D02*
D03*
Y1181D02*
D03*
D59*
X3189Y2283D02*
D03*
X5197Y7480D02*
D03*
X3189Y10551D02*
D03*
X4843Y10433D02*
D03*
X5315D02*
D03*
X6260D02*
D03*
X7205D02*
D03*
X5079Y8819D02*
D03*
Y9921D02*
D03*
Y9370D02*
D03*
X3346Y4724D02*
D03*
X1535Y6181D02*
D03*
X4055Y6378D02*
D03*
X2402Y6260D02*
D03*
X2756Y394D02*
D03*
X7874Y6102D02*
D03*
X5512Y6299D02*
D03*
X4921Y5394D02*
D03*
X1378Y4134D02*
D03*
X787Y6299D02*
D03*
X5787Y10433D02*
D03*
X6732D02*
D03*
X7677D02*
D03*
X7756Y8346D02*
D03*
X5709D02*
D03*
X6142Y8819D02*
D03*
X7323D02*
D03*
X6732D02*
D03*
X1260Y7913D02*
D03*
D60*
X3307Y5787D02*
D03*
X9567Y8307D02*
D03*
D61*
X6890Y12165D02*
D03*
X5709D02*
D03*
X4528D02*
D03*
X3346D02*
D03*
X4567Y1575D02*
D03*
X5709D02*
D03*
X6890D02*
D03*
Y906D02*
D03*
X5709D02*
D03*
X4528D02*
D03*
X5709Y11535D02*
D03*
X6890D02*
D03*
X4528D02*
D03*
X3346D02*
D03*
M02*
