G04 Layer_Color=16711935*
%FSLAX24Y24*%
%MOIN*%
G70*
G01*
G75*
%ADD26C,0.0394*%
%ADD28C,0.0591*%
G04:AMPARAMS|DCode=50|XSize=47.2mil|YSize=43.3mil|CornerRadius=8.4mil|HoleSize=0mil|Usage=FLASHONLY|Rotation=180.000|XOffset=0mil|YOffset=0mil|HoleType=Round|Shape=RoundedRectangle|*
%AMROUNDEDRECTD50*
21,1,0.0472,0.0266,0,0,180.0*
21,1,0.0305,0.0433,0,0,180.0*
1,1,0.0167,-0.0153,0.0133*
1,1,0.0167,0.0153,0.0133*
1,1,0.0167,0.0153,-0.0133*
1,1,0.0167,-0.0153,-0.0133*
%
%ADD50ROUNDEDRECTD50*%
%ADD55C,0.1457*%
%ADD56C,0.0079*%
%ADD57C,0.1260*%
%ADD58C,0.1260*%
%ADD59C,0.0472*%
%ADD60C,0.0630*%
%ADD61C,0.0669*%
G04:AMPARAMS|DCode=62|XSize=47.2mil|YSize=43.3mil|CornerRadius=8.4mil|HoleSize=0mil|Usage=FLASHONLY|Rotation=270.000|XOffset=0mil|YOffset=0mil|HoleType=Round|Shape=RoundedRectangle|*
%AMROUNDEDRECTD62*
21,1,0.0472,0.0266,0,0,270.0*
21,1,0.0305,0.0433,0,0,270.0*
1,1,0.0167,-0.0133,-0.0153*
1,1,0.0167,-0.0133,0.0153*
1,1,0.0167,0.0133,0.0153*
1,1,0.0167,0.0133,-0.0153*
%
%ADD62ROUNDEDRECTD62*%
%ADD63R,0.0729X0.0319*%
%ADD64R,0.1899X0.1859*%
G04:AMPARAMS|DCode=65|XSize=98.4mil|YSize=78.7mil|CornerRadius=12.8mil|HoleSize=0mil|Usage=FLASHONLY|Rotation=270.000|XOffset=0mil|YOffset=0mil|HoleType=Round|Shape=RoundedRectangle|*
%AMROUNDEDRECTD65*
21,1,0.0984,0.0532,0,0,270.0*
21,1,0.0728,0.0787,0,0,270.0*
1,1,0.0256,-0.0266,-0.0364*
1,1,0.0256,-0.0266,0.0364*
1,1,0.0256,0.0266,0.0364*
1,1,0.0256,0.0266,-0.0364*
%
%ADD65ROUNDEDRECTD65*%
G04:AMPARAMS|DCode=66|XSize=47.2mil|YSize=33.9mil|CornerRadius=10.4mil|HoleSize=0mil|Usage=FLASHONLY|Rotation=90.000|XOffset=0mil|YOffset=0mil|HoleType=Round|Shape=RoundedRectangle|*
%AMROUNDEDRECTD66*
21,1,0.0472,0.0130,0,0,90.0*
21,1,0.0264,0.0339,0,0,90.0*
1,1,0.0209,0.0065,0.0132*
1,1,0.0209,0.0065,-0.0132*
1,1,0.0209,-0.0065,-0.0132*
1,1,0.0209,-0.0065,0.0132*
%
%ADD66ROUNDEDRECTD66*%
%ADD67R,0.0339X0.0472*%
G04:AMPARAMS|DCode=68|XSize=78.7mil|YSize=53.2mil|CornerRadius=9.6mil|HoleSize=0mil|Usage=FLASHONLY|Rotation=180.000|XOffset=0mil|YOffset=0mil|HoleType=Round|Shape=RoundedRectangle|*
%AMROUNDEDRECTD68*
21,1,0.0787,0.0340,0,0,180.0*
21,1,0.0595,0.0532,0,0,180.0*
1,1,0.0192,-0.0298,0.0170*
1,1,0.0192,0.0298,0.0170*
1,1,0.0192,0.0298,-0.0170*
1,1,0.0192,-0.0298,-0.0170*
%
%ADD68ROUNDEDRECTD68*%
G04:AMPARAMS|DCode=69|XSize=78.7mil|YSize=53.2mil|CornerRadius=9.6mil|HoleSize=0mil|Usage=FLASHONLY|Rotation=270.000|XOffset=0mil|YOffset=0mil|HoleType=Round|Shape=RoundedRectangle|*
%AMROUNDEDRECTD69*
21,1,0.0787,0.0340,0,0,270.0*
21,1,0.0595,0.0532,0,0,270.0*
1,1,0.0192,-0.0170,-0.0298*
1,1,0.0192,-0.0170,0.0298*
1,1,0.0192,0.0170,0.0298*
1,1,0.0192,0.0170,-0.0298*
%
%ADD69ROUNDEDRECTD69*%
%ADD70O,0.0433X0.0197*%
%ADD71R,0.0433X0.0197*%
%ADD72R,0.0319X0.0729*%
%ADD73R,0.1859X0.1899*%
G04:AMPARAMS|DCode=74|XSize=114.2mil|YSize=63mil|CornerRadius=10.8mil|HoleSize=0mil|Usage=FLASHONLY|Rotation=0.000|XOffset=0mil|YOffset=0mil|HoleType=Round|Shape=RoundedRectangle|*
%AMROUNDEDRECTD74*
21,1,0.1142,0.0413,0,0,0.0*
21,1,0.0925,0.0630,0,0,0.0*
1,1,0.0217,0.0463,-0.0207*
1,1,0.0217,-0.0463,-0.0207*
1,1,0.0217,-0.0463,0.0207*
1,1,0.0217,0.0463,0.0207*
%
%ADD74ROUNDEDRECTD74*%
%ADD75O,0.0315X0.0669*%
%ADD76R,0.0315X0.0669*%
%ADD77O,0.0335X0.0807*%
G04:AMPARAMS|DCode=78|XSize=39.4mil|YSize=47.2mil|CornerRadius=7.9mil|HoleSize=0mil|Usage=FLASHONLY|Rotation=270.000|XOffset=0mil|YOffset=0mil|HoleType=Round|Shape=RoundedRectangle|*
%AMROUNDEDRECTD78*
21,1,0.0394,0.0315,0,0,270.0*
21,1,0.0236,0.0472,0,0,270.0*
1,1,0.0157,-0.0157,-0.0118*
1,1,0.0157,-0.0157,0.0118*
1,1,0.0157,0.0157,0.0118*
1,1,0.0157,0.0157,-0.0118*
%
%ADD78ROUNDEDRECTD78*%
D26*
X7756Y4843D02*
D03*
X3465Y7205D02*
D03*
X5197Y4646D02*
D03*
X2087Y7323D02*
D03*
X3465Y7874D02*
D03*
X9843Y3622D02*
D03*
X8530Y2730D02*
D03*
X2402Y10906D02*
D03*
D28*
X614Y3445D02*
D03*
Y1445D02*
D03*
Y2445D02*
D03*
X1614Y1945D02*
D03*
Y2945D02*
D03*
Y945D02*
D03*
D50*
X2520Y1358D02*
D03*
Y2028D02*
D03*
Y3248D02*
D03*
Y2579D02*
D03*
X1535Y6791D02*
D03*
Y7461D02*
D03*
X9724Y3327D02*
D03*
Y2657D02*
D03*
D55*
X12008Y8701D02*
D03*
Y6512D02*
D03*
Y4323D02*
D03*
D56*
X906Y394D02*
D03*
D57*
X15709Y4685D02*
D03*
X13740Y4685D02*
D03*
X15709Y7795D02*
D03*
X13740D02*
D03*
X984Y11417D02*
D03*
Y9449D02*
D03*
D58*
X15354Y11417D02*
D03*
Y1181D02*
D03*
D59*
X3189Y2283D02*
D03*
X5197Y7480D02*
D03*
X3189Y10551D02*
D03*
X4843Y10433D02*
D03*
X5315D02*
D03*
X6260D02*
D03*
X7205D02*
D03*
X5079Y8819D02*
D03*
Y9921D02*
D03*
Y9370D02*
D03*
X3346Y4724D02*
D03*
X1535Y6181D02*
D03*
X4055Y6378D02*
D03*
X2402Y6260D02*
D03*
X2756Y394D02*
D03*
X7874Y6102D02*
D03*
X5512Y6299D02*
D03*
X4921Y5394D02*
D03*
X1378Y4134D02*
D03*
X787Y6299D02*
D03*
X5787Y10433D02*
D03*
X6732D02*
D03*
X7677D02*
D03*
X7756Y8346D02*
D03*
X5709D02*
D03*
X6142Y8819D02*
D03*
X7323D02*
D03*
X6732D02*
D03*
X1260Y7913D02*
D03*
D60*
X3307Y5787D02*
D03*
X9567Y8307D02*
D03*
D61*
X6890Y12165D02*
D03*
X5709D02*
D03*
X4528D02*
D03*
X3346D02*
D03*
X4567Y1575D02*
D03*
X5709D02*
D03*
X6890D02*
D03*
Y906D02*
D03*
X5709D02*
D03*
X4528D02*
D03*
X5709Y11535D02*
D03*
X6890D02*
D03*
X4528D02*
D03*
X3346D02*
D03*
D62*
X3917Y7874D02*
D03*
X4587D02*
D03*
X5531Y4134D02*
D03*
X4862D02*
D03*
X5531Y3543D02*
D03*
X4862D02*
D03*
X3484Y2717D02*
D03*
X4154D02*
D03*
X3484Y3307D02*
D03*
X4154D02*
D03*
X10374Y4724D02*
D03*
X9705D02*
D03*
X10374Y3976D02*
D03*
X9705D02*
D03*
X9075Y1220D02*
D03*
X8406D02*
D03*
D63*
X4469Y8423D02*
D03*
Y8923D02*
D03*
Y9923D02*
D03*
Y9423D02*
D03*
D64*
X2965Y9173D02*
D03*
D65*
X4114Y5551D02*
D03*
X2972D02*
D03*
X1791Y5197D02*
D03*
X650D02*
D03*
D66*
X2579Y6772D02*
D03*
X2205D02*
D03*
X2953Y7807D02*
D03*
X2205D02*
D03*
D67*
X2953Y6772D02*
D03*
D68*
X630Y8031D02*
D03*
Y6850D02*
D03*
X7638Y11929D02*
D03*
Y10748D02*
D03*
X6732Y11929D02*
D03*
Y10748D02*
D03*
X5827Y11929D02*
D03*
Y10748D02*
D03*
X4921Y11929D02*
D03*
Y10748D02*
D03*
X4016Y11929D02*
D03*
Y10748D02*
D03*
X3110Y11929D02*
D03*
Y10748D02*
D03*
X2205Y11929D02*
D03*
Y10748D02*
D03*
D69*
X4724Y7008D02*
D03*
X3543D02*
D03*
D70*
X4150Y3898D02*
D03*
Y4094D02*
D03*
Y4291D02*
D03*
Y4488D02*
D03*
Y4685D02*
D03*
X2441Y4094D02*
D03*
Y4291D02*
D03*
Y4488D02*
D03*
Y4685D02*
D03*
D71*
Y3898D02*
D03*
D72*
X7718Y5138D02*
D03*
X7218D02*
D03*
X6719D02*
D03*
X6219D02*
D03*
D73*
X6969Y3634D02*
D03*
D74*
X6732Y8110D02*
D03*
Y6299D02*
D03*
D75*
X9776Y7717D02*
D03*
X10276D02*
D03*
X9776Y5551D02*
D03*
X9276Y7717D02*
D03*
X8776D02*
D03*
X9276Y5551D02*
D03*
X8776D02*
D03*
D76*
X10276D02*
D03*
D77*
X9030Y4616D02*
D03*
X8530D02*
D03*
X9030Y2077D02*
D03*
X8530D02*
D03*
D78*
X10256Y9213D02*
D03*
X8799D02*
D03*
M02*
